<svg width="33" height="33" viewBox="0 0 33 33" fill="none" xmlns="http://www.w3.org/2000/svg">
<path d="M5.82034 6.64554H27.1693C27.6665 6.64554 27.998 6.28299 27.998 5.75471C27.998 5.22642 27.6665 4.85352 27.1693 4.85352H5.82034C5.32313 4.85352 4.99166 5.21606 4.99166 5.75471C4.99166 6.28299 5.32313 6.64554 5.82034 6.64554ZM7.26018 15.0152H9.31117C10.7406 15.0152 11.445 14.3212 11.445 12.8399V10.8615C11.445 9.3802 10.7406 8.69653 9.31117 8.69653H7.26018C5.8307 8.69653 5.12632 9.39055 5.12632 10.8615V12.8399C5.12632 14.3212 5.8307 15.0152 7.26018 15.0152ZM15.4641 15.0152H17.5151C18.955 15.0152 19.649 14.3212 19.649 12.8399V10.8615C19.649 9.39055 18.955 8.69653 17.5151 8.69653H15.4641C14.0347 8.69653 13.3303 9.39055 13.3303 10.8615V12.8399C13.3303 14.3212 14.0347 15.0152 15.4641 15.0152ZM23.6785 15.0152H25.7295C27.1589 15.0152 27.8633 14.3212 27.8633 12.8399V10.8615C27.8633 9.39055 27.1589 8.69653 25.7295 8.69653H23.6785C22.2386 8.69653 21.5446 9.39055 21.5446 10.8615V12.8399C21.5446 14.3212 22.2386 15.0152 23.6785 15.0152ZM5.82034 18.765H27.1693C27.6665 18.765 27.998 18.4025 27.998 17.8742C27.998 17.3459 27.6665 16.973 27.1693 16.973H5.82034C5.32313 16.973 4.99166 17.3356 4.99166 17.8742C4.99166 18.4128 5.32313 18.765 5.82034 18.765ZM7.27054 27.1347H9.32153C10.751 27.1347 11.4554 26.4407 11.4554 24.9698V22.981C11.4554 21.51 10.751 20.816 9.32153 20.816H7.27054C5.84106 20.816 5.13668 21.4997 5.13668 22.981V24.9698C5.13668 26.4407 5.84106 27.1347 7.27054 27.1347ZM15.4745 27.1347H17.5255C18.9653 27.1347 19.6593 26.4407 19.6593 24.9698V22.981C19.6593 21.51 18.9653 20.816 17.5255 20.816H15.4745C14.045 20.816 13.3406 21.4997 13.3406 22.981V24.9698C13.3406 26.4407 14.045 27.1347 15.4745 27.1347ZM23.6785 27.1347H25.7398C27.1693 27.1347 27.8633 26.4407 27.8633 24.9698V22.981C27.8633 21.51 27.1693 20.816 25.7398 20.816H23.6785C22.249 20.816 21.555 21.51 21.555 22.981V24.9698C21.555 26.4407 22.249 27.1347 23.6785 27.1347Z" fill="#FDFDFD"/>
</svg>
