<svg width="29" height="29" viewBox="0 0 29 29" fill="none" xmlns="http://www.w3.org/2000/svg">
<path d="M14.5 29C22.4308 29 29 22.4448 29 14.5C29 6.56922 22.4308 0 14.486 0C6.55518 0 0 6.56922 0 14.5C0 22.4448 6.56922 29 14.5 29ZM14.5 26.1505C8.04308 26.1505 2.8635 20.9569 2.8635 14.5C2.8635 8.04308 8.02904 2.8635 14.486 2.8635C20.9429 2.8635 26.1365 8.04308 26.1505 14.5C26.1505 20.9569 20.9569 26.1505 14.5 26.1505ZM11.5944 23.4555C12.2541 23.4555 12.6752 23.0765 12.6612 22.4448L12.5208 13.8262C12.5208 13.5315 12.6191 13.349 12.8577 13.2367C13.8964 12.7875 14.3596 12.2962 14.2894 10.9066L14.0649 6.24637C14.0508 5.88141 13.8543 5.67086 13.5315 5.67086C13.2086 5.67086 13.0121 5.89545 13.0121 6.26041L13.0823 10.7943C13.0823 11.061 12.8998 11.2435 12.6471 11.2435C12.3804 11.2435 12.198 11.061 12.198 10.8083L12.1418 6.12004C12.1418 5.78316 11.9172 5.5726 11.5944 5.5726C11.2715 5.5726 11.061 5.78316 11.061 6.12004L10.9768 10.8083C10.9768 11.061 10.8083 11.2435 10.5416 11.2435C10.303 11.2435 10.1205 11.061 10.1205 10.7943L10.1907 6.26041C10.1907 5.89545 9.99419 5.67086 9.67135 5.67086C9.3485 5.67086 9.13795 5.88141 9.12391 6.24637L8.91336 10.9066C8.85721 12.2962 9.30639 12.7875 10.3451 13.2367C10.5837 13.349 10.682 13.5315 10.682 13.8262L10.5416 22.4448C10.5276 23.0765 10.9487 23.4555 11.5944 23.4555ZM16.9705 16.9143L16.802 22.4167C16.788 23.0765 17.2231 23.4555 17.8688 23.4555C18.5426 23.4555 18.9497 23.1046 18.9497 22.4729V6.16215C18.9497 5.75508 18.6689 5.5726 18.3882 5.5726C18.0934 5.5726 17.8969 5.72701 17.6583 6.09197C16.409 7.81849 15.5668 11.1452 15.5668 14.1772V14.6965C15.5668 15.244 15.7633 15.6229 16.1844 15.9037L16.5774 16.1844C16.8582 16.3809 16.9845 16.5774 16.9705 16.9143Z" fill="white"/>
</svg>
