<svg width="29" height="29" viewBox="0 0 29 29" fill="none" xmlns="http://www.w3.org/2000/svg">
<path d="M14.5 29C22.4308 29 29 22.4448 29 14.5C29 6.56922 22.4308 0 14.486 0C6.55518 0 0 6.56922 0 14.5C0 22.4448 6.56922 29 14.5 29ZM14.5 26.1505C8.04308 26.1505 2.8635 20.9569 2.8635 14.5C2.8635 8.04308 8.02904 2.8635 14.486 2.8635C20.9429 2.8635 26.1365 8.04308 26.1505 14.5C26.1505 20.9569 20.9569 26.1505 14.5 26.1505ZM7.7062 9.2362C7.5939 9.86786 7.49564 10.7101 7.49564 11.2715C7.49564 15.9598 10.303 19.062 14.5702 19.062C16.6757 19.062 17.925 18.1215 18.5426 17.4337C19.0479 18.1355 19.3287 18.9076 19.6655 19.9463C19.7498 20.241 19.9743 20.3674 20.1989 20.3674C20.6762 20.3674 21.0692 19.9463 21.0692 19.3848C21.0692 18.5145 19.8199 17.0126 19.1602 16.409C16.395 13.8683 12.226 15.3843 11.1873 12.591C11.1031 12.3945 11.3136 12.2401 11.5102 12.4085C13.7982 14.3596 16.4511 12.8015 19.1181 15.2299C19.3567 15.4545 19.6375 15.3422 19.6936 15.1036C19.7217 14.9071 19.7357 14.6263 19.7357 14.3596C19.7357 11.3136 17.6302 9.79768 14.5983 9.79768C13.5876 9.79768 12.4085 10.0503 11.4961 10.0503C10.5136 10.0503 9.40465 9.95208 8.49226 9.02565C8.19748 8.74492 7.79042 8.78703 7.7062 9.2362Z" fill="white"/>
</svg>
